<svg width="16" height="18" viewBox="0 0 16 18" fill="none" xmlns="http://www.w3.org/2000/svg">
<path fill-rule="evenodd" clip-rule="evenodd" d="M6.02004 1.86001C6.02004 1.76059 6.10063 1.68001 6.20004 1.68001H10.16C10.2594 1.68001 10.34 1.76059 10.34 1.86001V3.30001H7.6398H6.02004V1.86001ZM4.94004 3.30001V1.86001C4.94004 1.16413 5.50416 0.600006 6.20004 0.600006H10.16C10.8559 0.600006 11.42 1.16413 11.42 1.86001V3.30001H15.1998V4.38001H14.6178L13.5378 17.7H2.83504L1.39504 4.38001H0.799805V3.30001H4.94004ZM2.48133 4.38001L3.80457 16.62H12.5418L13.5342 4.38001H2.48133ZM5.11895 14.46V6.54005H6.19895V14.46H5.11895ZM7.64043 6.54005V14.46H8.72043V6.54005H7.64043ZM10.16 14.46V6.54005H11.24V14.46H10.16Z" fill="#8B8B8B"/>
</svg>
